<svg width="800" height="800" xmlns="http://www.w3.org/2000/svg" xml:space="preserve" version="1.1">
 <defs>
  <linearGradient y2="2.2961" x2="0.5" y1="-0.77419" x1="0.5" id="SVGID_1_">
   <stop stop-color="#D968D0" offset="0"/>
   <stop stop-color="#EB4634" offset="1"/>
  </linearGradient>
  <linearGradient y2="4.66631" x2="0.5" y1="-0.00463" x1="0.5" id="SVGID_00000175313778298159982660000003975743951099566765_">
   <stop stop-color="#D968D0" offset="0"/>
   <stop stop-color="#EB4634" offset="1"/>
  </linearGradient>
  <linearGradient y2="2.94348" x2="0.5" y1="-0.27274" x1="0.5" id="SVGID_00000091727151955329092940000017313791944472246407_">
   <stop stop-color="#D968D0" offset="0"/>
   <stop stop-color="#EB4634" offset="1"/>
  </linearGradient>
  <linearGradient y2="5.02272" x2="0.50002" y1="-2.95978" x1="0.50002" id="SVGID_00000101793407270992779020000014774544052669600668_">
   <stop stop-color="#D968D0" offset="0"/>
   <stop stop-color="#EB4634" offset="1"/>
  </linearGradient>
  <linearGradient y2="10.03746" x2="0.50003" y1="-12.41424" x1="0.50003" id="SVGID_00000008151167410342237260000006333276255979755673_">
   <stop stop-color="#D968D0" offset="0"/>
   <stop stop-color="#EB4634" offset="1"/>
  </linearGradient>
  <linearGradient y2="1.14475" x2="0.50001" y1="-0.98257" x1="0.50001" id="SVGID_00000049907117699248182330000015138478139647472830_">
   <stop stop-color="#D968D0" offset="0"/>
   <stop stop-color="#EB4634" offset="1"/>
  </linearGradient>
  <linearGradient y2="1.49154" x2="0.5" y1="-4.06636" x1="0.5" id="SVGID_00000032645200976030563890000006794920453360913062_">
   <stop stop-color="#D968D0" offset="0"/>
   <stop stop-color="#EB4634" offset="1"/>
  </linearGradient>
  <linearGradient y2="1.10293" x2="0.50001" y1="-0.74753" x1="0.50001" id="SVGID_00000141421454255949156290000006905327740666145156_">
   <stop stop-color="#D968D0" offset="0"/>
   <stop stop-color="#EB4634" offset="1"/>
  </linearGradient>
  <linearGradient y2="1.30973" x2="0.5" y1="-1.36642" x1="0.5" id="SVGID_00000051345260884832825730000015668195953738093495_">
   <stop stop-color="#D968D0" offset="0"/>
   <stop stop-color="#EB4634" offset="1"/>
  </linearGradient>
  <linearGradient y2="2.70382" x2="0.50001" y1="-1.43299" x1="0.50001" id="SVGID_00000170992762897802772460000016891362510038843292_">
   <stop stop-color="#D968D0" offset="0"/>
   <stop stop-color="#EB4634" offset="1"/>
  </linearGradient>
  <linearGradient y2="1.16937" x2="0.49999" y1="-2.04583" x1="0.49999" id="SVGID_00000018937116752041388240000006877801852934711196_">
   <stop stop-color="#D968D0" offset="0"/>
   <stop stop-color="#EB4634" offset="1"/>
  </linearGradient>
  <linearGradient y2="1.26495" x2="0.5" y1="-0.51383" x1="0.5" id="SVGID_00000088112571426191546760000005275718823562036895_">
   <stop stop-color="#D968D0" offset="0"/>
   <stop stop-color="#EB4634" offset="1"/>
  </linearGradient>
  <linearGradient y2="1.09715" x2="0.5" y1="-0.49462" x1="0.5" id="SVGID_00000052820120597233908740000007643792300468968361_">
   <stop stop-color="#D968D0" offset="0"/>
   <stop stop-color="#EB4634" offset="1"/>
  </linearGradient>
  <linearGradient y2="2.30144" x2="0.5" y1="-4.6403" x1="0.5" id="SVGID_00000155833729572647407750000001884436509731487118_">
   <stop stop-color="#D968D0" offset="0"/>
   <stop stop-color="#EB4634" offset="1"/>
  </linearGradient>
  <linearGradient y2="1.6031" x2="0.49999" y1="-0.48233" x1="0.49999" id="SVGID_00000003069102003663883740000007238625894888996270_">
   <stop stop-color="#D968D0" offset="0"/>
   <stop stop-color="#EB4634" offset="1"/>
  </linearGradient>
  <linearGradient y2="1.52196" x2="0.5" y1="-4.75772" x1="0.5" id="SVGID_00000052820666419897394450000010481292094776646323_">
   <stop stop-color="#D968D0" offset="0"/>
   <stop stop-color="#EB4634" offset="1"/>
  </linearGradient>
  <linearGradient y2="1.21077" x2="0.49999" y1="-0.50019" x1="0.49999" id="SVGID_00000109031436370211291740000014440740307411022764_">
   <stop stop-color="#D968D0" offset="0"/>
   <stop stop-color="#EB4634" offset="1"/>
  </linearGradient>
  <linearGradient y2="9.15633" x2="0.5" y1="-1.92552" x1="0.5" id="SVGID_00000081617856624002660500000014457919432789183416_">
   <stop stop-color="#D968D0" offset="0"/>
   <stop stop-color="#EB4634" offset="1"/>
  </linearGradient>
  <linearGradient y2="1.43428" x2="0.5" y1="-0.44816" x1="0.5" id="SVGID_00000060026949236068225080000014955527108540923055_">
   <stop stop-color="#D968D0" offset="0"/>
   <stop stop-color="#EB4634" offset="1"/>
  </linearGradient>
  <linearGradient y2="2.13241" x2="0.50001" y1="-1.93394" x1="0.50001" id="SVGID_00000135656438741098351460000011519721504790639518_">
   <stop stop-color="#D968D0" offset="0"/>
   <stop stop-color="#EB4634" offset="1"/>
  </linearGradient>
  <linearGradient y2="2.54662" x2="0.5" y1="-0.33467" x1="0.5" id="SVGID_00000017479241211351959170000013132366125447687868_">
   <stop stop-color="#D968D0" offset="0"/>
   <stop stop-color="#EB4634" offset="1"/>
  </linearGradient>
  <linearGradient y2="1.6279" x2="0.50001" y1="-1.7004" x1="0.50001" id="SVGID_00000160888515731892740420000013810747027796521864_">
   <stop stop-color="#D968D0" offset="0"/>
   <stop stop-color="#EB4634" offset="1"/>
  </linearGradient>
  <linearGradient y2="1.54503" x2="0.5" y1="-0.09623" x1="0.5" id="SVGID_00000078734969931751298230000007607325103927000216_">
   <stop stop-color="#D968D0" offset="0"/>
   <stop stop-color="#EB4634" offset="1"/>
  </linearGradient>
  <linearGradient y2="1.47419" x2="0.5" y1="-0.12432" x1="0.5" id="SVGID_00000082335161465235849160000009132301192877662900_">
   <stop stop-color="#D968D0" offset="0"/>
   <stop stop-color="#EB4634" offset="1"/>
  </linearGradient>
 </defs>
 <g>
  <title>Layer 1</title>
  <g stroke="null" id="svg_2">
   <g stroke="null" id="svg_3">
    <g stroke="null" id="svg_4">
     <g stroke="null" id="svg_5">
      <path stroke="null" id="svg_6" fill="url(#SVGID_1_)" d="m66.12851,476.6375c-4.28764,0 -8.12395,-3.01532 -9.00405,-7.37926c-7.95094,-39.44309 -9.10506,-79.45356 -3.42796,-118.91707c5.48582,-38.1439 17.2129,-74.951 34.85241,-109.39936c2.31468,-4.51976 7.8553,-6.30896 12.37506,-3.9932c4.51976,2.31468 6.30789,7.8553 3.9932,12.37506c-16.71213,32.63766 -27.82239,67.50512 -33.01915,103.63522c-5.37728,37.37986 -4.28227,75.28627 3.25281,112.66506c1.00367,4.97753 -2.21904,9.82719 -7.19658,10.83086c-0.61252,0.1225 -1.22397,0.18268 -1.82574,0.18268z"/>
     </g>
     <g stroke="null" id="svg_7">
      <path stroke="null" id="svg_8" fill="url(#SVGID_00000175313778298159982660000003975743951099566765_)" d="m124.92079,208.53734c-1.88054,0 -3.77721,-0.57491 -5.41167,-1.76771c-4.10281,-2.99275 -5.00117,-8.74507 -2.00842,-12.84681c51.62257,-70.74718 127.37307,-119.25019 213.29893,-136.5727c76.23837,-15.37104 153.34393,-5.42994 222.98535,28.75192c4.55737,2.23731 6.43899,7.74677 4.20167,12.30521c-2.23731,4.55844 -7.74462,6.44006 -12.30521,4.20275c-65.96629,-32.37869 -139.01526,-41.79538 -211.24753,-27.23244c-81.4061,16.41125 -153.172,62.36102 -202.07799,129.38364c-1.79995,2.46727 -4.5982,3.77613 -7.43514,3.77613z"/>
     </g>
     <g stroke="null" id="svg_9">
      <path stroke="null" id="svg_10" fill="url(#SVGID_00000091727151955329092940000017313791944472246407_)" d="m733.67576,342.03884c-4.28764,0 -8.12395,-3.01424 -9.00405,-7.38033c-16.85828,-83.63912 -64.59188,-156.68486 -134.40953,-205.67896c-4.15547,-2.91753 -5.16022,-8.65158 -2.24483,-12.80705c2.91968,-4.15869 8.65373,-5.16236 12.8092,-2.24483c73.69372,51.71606 124.07836,128.81626 141.87261,217.09871c1.0026,4.97753 -2.21904,9.82719 -7.19658,10.82979c-0.61252,0.12358 -1.22397,0.18268 -1.82682,0.18268z"/>
     </g>
    </g>
   </g>
   <g stroke="null" id="svg_11">
    <g stroke="null" id="svg_12">
     <g stroke="null" id="svg_13">
      <path stroke="null" id="svg_14" fill="url(#SVGID_00000101793407270992779020000014774544052669600668_)" d="m740.59187,416.18604c-0.0591,0 -0.11821,0 -0.17838,-0.00215c-5.07747,-0.09671 -9.11473,-4.29087 -9.01909,-9.36834c0.461,-24.12363 -1.73977,-48.41382 -6.53677,-72.19466c-1.00475,-4.97753 2.21689,-9.82719 7.19443,-10.83194c4.98398,-1.00582 9.82719,2.21689 10.83086,7.19443c5.06243,25.08969 7.38248,50.72098 6.89891,76.18141c-0.09564,5.01837 -4.19308,9.02124 -9.18995,9.02124z"/>
     </g>
     <g stroke="null" id="svg_15">
      <path stroke="null" id="svg_16" fill="url(#SVGID_00000008151167410342237260000006333276255979755673_)" d="m69.56937,491.13167c-4.1329,0 -7.88862,-2.80577 -8.92131,-6.99778c-1.24009,-5.03986 -2.36626,-10.05286 -3.3463,-14.90036c-1.00582,-4.97753 2.21474,-9.82827 7.1912,-10.83301c4.98398,-1.00797 9.82827,2.21367 10.83409,7.1912c0.92845,4.59605 1.9966,9.35544 3.17651,14.14492c1.21429,4.93133 -1.7978,9.91316 -6.72913,11.12638c-0.73717,0.18161 -1.47757,0.26865 -2.20507,0.26865z"/>
     </g>
    </g>
   </g>
   <g stroke="null" id="svg_17">
    <path stroke="null" id="svg_18" fill="url(#SVGID_00000049907117699248182330000015138478139647472830_)" d="m312.00492,738.32554c-2.15564,0 -4.31881,-0.75329 -6.06503,-2.28782c-3.81482,-3.35059 -4.18985,-9.15987 -0.83819,-12.97576c37.24983,-42.39608 64.8702,-93.46523 79.87588,-147.68511c15.73318,-56.84619 17.75234,-115.19896 6.00377,-173.43353c-1.00475,-4.97753 2.21689,-9.82719 7.19443,-10.83086c4.97968,-1.00797 9.82827,2.21797 10.83086,7.19443c12.3267,61.093 10.20437,122.31817 -6.30681,181.9755c-15.74177,56.8795 -44.71399,110.44924 -83.78526,154.91714c-1.81607,2.06967 -4.35642,3.126 -6.90966,3.126z"/>
   </g>
   <g stroke="null" id="svg_19">
    <path stroke="null" id="svg_20" fill="url(#SVGID_00000032645200976030563890000006794920453360913062_)" d="m267.98513,723.25217c-2.31468,0 -4.63151,-0.86935 -6.41964,-2.61342c-3.63536,-3.54617 -3.70843,-9.36619 -0.16119,-13.00263c31.36642,-32.15624 55.54807,-69.67043 71.8712,-111.49912c1.84616,-4.7293 7.18046,-7.06548 11.90761,-5.22362c4.73038,1.84723 7.06977,7.17831 5.22254,11.90869c-17.22364,44.138 -42.73995,83.72294 -75.83862,117.65441c-1.80102,1.84831 -4.19093,2.77568 -6.58191,2.77568z"/>
   </g>
   <g stroke="null" id="svg_21">
    <path stroke="null" id="svg_22" fill="url(#SVGID_00000141421454255949156290000006905327740666145156_)" d="m359.6719,747.50475c-1.98048,0 -3.97493,-0.63616 -5.6556,-1.94932c-4.0018,-3.12708 -4.70996,-8.90519 -1.58396,-12.90699c75.10574,-96.11197 104.3681,-219.7132 80.28208,-339.11169l-0.61897,-3.06797c-2.24053,-7.50391 -6.98703,-13.93108 -13.59043,-18.31866c-7.47382,-4.96571 -16.43274,-6.7216 -25.22294,-4.94745c-16.63906,3.35274 -27.93308,18.53787 -26.89394,35.02649l0.90481,4.48859c9.56606,47.4714 9.31568,95.36082 -0.74684,142.33791c-1.06493,4.96464 -5.95327,8.12503 -10.91683,7.0644c-4.96571,-1.06278 -8.12825,-5.95112 -7.06548,-10.91576c8.90519,-41.57401 9.69609,-83.91421 2.36734,-125.98684l-0.18913,0.03439l-1.78168,-8.84608c-5.66205,-28.09964 12.58891,-55.56849 40.68425,-61.23054c13.6044,-2.74882 27.46885,-0.02901 39.03581,7.65758c11.56589,7.68444 19.44913,19.41152 22.1958,33.02129l1.61942,8.02079l-0.21062,0.06877c22.26995,122.16128 -8.63116,247.83648 -85.36385,346.02779c-1.81177,2.32006 -4.51761,3.53328 -7.24923,3.53328z"/>
   </g>
   <g stroke="null" id="svg_23">
    <path stroke="null" id="svg_24" fill="url(#SVGID_00000051345260884832825730000015668195953738093495_)" d="m227.76618,703.0809c-2.45653,0 -4.90554,-0.97788 -6.71623,-2.91323c-3.4688,-3.70736 -3.27537,-9.5263 0.43306,-12.99618c68.37447,-63.96539 101.72029,-157.35433 89.19908,-249.81374c-0.68129,-5.03234 2.84553,-9.66493 7.87787,-10.34515c5.03556,-0.68237 9.66385,2.84553 10.34622,7.87787c13.31856,98.35143 -22.14422,197.68289 -94.86006,265.71026c-1.77309,1.65918 -4.02866,2.48017 -6.27995,2.48017z"/>
   </g>
   <g stroke="null" id="svg_25">
    <path stroke="null" id="svg_26" fill="url(#SVGID_00000170992762897802772460000016891362510038843292_)" d="m492.77902,484.23168c-5.06565,0 -9.17921,-4.10066 -9.19318,-9.17061c-0.07845,-29.96944 -3.15394,-60.23117 -9.13837,-89.94485l-0.71676,-3.55692c-4.61002,-18.42827 -15.76327,-34.25278 -31.69094,-44.83649c-16.9335,-11.25318 -37.23479,-15.23456 -57.16319,-11.2145c-29.91356,6.03279 -53.26993,29.22904 -59.50582,59.09639c-1.03806,4.97109 -5.90921,8.16264 -10.8803,7.12136c-4.97109,-1.03699 -8.15942,-5.90921 -7.12136,-10.87922c7.74032,-37.07897 36.73725,-65.8771 73.86996,-73.36489c24.74367,-4.99365 49.95265,-0.04836 70.97821,13.92463c21.02557,13.97191 35.35102,35.29729 40.33608,60.04526l1.48402,7.36851l-0.13432,0.05695c5.28272,28.50906 7.99608,57.44796 8.0713,86.13433c0.01397,5.07747 -4.09207,9.205 -9.16954,9.21897c-0.00752,0.00107 -0.01612,0.00107 -0.02579,0.00107z"/>
   </g>
   <g stroke="null" id="svg_27">
    <path stroke="null" id="svg_28" fill="url(#SVGID_00000018937116752041388240000006877801852934711196_)" d="m410.78726,749.68081c-1.78813,0 -3.5956,-0.52118 -5.18278,-1.6076c-4.192,-2.86595 -5.26445,-8.58818 -2.39635,-12.78018c42.24456,-61.75065 69.02567,-133.43917 77.44836,-207.31235c0.57491,-5.04416 5.13872,-8.66985 10.17751,-8.09279c5.04416,0.57383 8.66877,5.1312 8.09279,10.17643c-8.75904,76.84014 -36.60937,151.39676 -80.54213,215.61039c-1.78168,2.60482 -4.66483,4.0061 -7.5974,4.0061z"/>
   </g>
   <g stroke="null" id="svg_29">
    <path stroke="null" id="svg_30" fill="url(#SVGID_00000088112571426191546760000005275718823562036895_)" d="m191.42653,678.53388c-2.57581,0 -5.13657,-1.07567 -6.95479,-3.17543c-3.3248,-3.83846 -2.90786,-9.64558 0.9306,-12.96931c32.45176,-28.10609 57.14385,-64.37052 71.4059,-104.87208c13.69789,-38.89934 17.32788,-80.73985 10.61594,-121.5595l-0.07415,0.0129l-1.76556,-8.75044c-7.23849,-35.88617 -0.06985,-72.44074 20.18953,-102.92921c20.25616,-30.48739 51.17661,-51.26151 87.06278,-58.49677c12.48037,-2.51778 25.195,-3.29794 37.79466,-2.32006c5.0635,0.39438 8.84716,4.81742 8.45386,9.87985c-0.39438,5.06243 -4.80775,8.84501 -9.87877,8.45386c-10.90501,-0.85001 -21.91641,-0.17086 -32.73438,2.01165c-31.07198,6.2649 -57.84234,24.25151 -75.38084,50.64791c-16.134,24.2816 -22.6783,53.00773 -18.74635,81.63822l1.50014,7.43729c9.44248,46.82127 6.09082,95.26089 -9.69179,140.08018c-15.32161,43.51044 -41.84804,82.46996 -76.71226,112.66506c-1.7387,1.50766 -3.88144,2.24591 -6.01452,2.24591z"/>
   </g>
   <g stroke="null" id="svg_31">
    <path stroke="null" id="svg_32" fill="url(#SVGID_00000052820120597233908740000007643792300468968361_)" d="m465.06839,743.50832c-1.58073,0 -3.18188,-0.40727 -4.64226,-1.2648c-4.38113,-2.57044 -5.84796,-8.20347 -3.27967,-12.58353c62.48245,-106.5044 83.44032,-231.85507 59.01687,-352.95895l-0.8038,-3.98353c-7.68229,-32.35075 -28.54237,-59.98938 -57.71769,-76.26201c-4.43594,-2.47372 -6.02527,-8.07452 -3.55154,-12.50939c2.47265,-4.43379 8.07237,-6.02527 12.50831,-3.55154c35.05873,19.55444 59.71859,53.32258 67.65663,92.64532l1.57643,7.81017l-0.12465,0.04406c22.88462,123.10692 0.7318,249.95129 -62.69844,358.06973c-1.71183,2.92075 -4.78411,4.54447 -7.9402,4.54447z"/>
   </g>
   <g stroke="null" id="svg_33">
    <path stroke="null" id="svg_34" fill="url(#SVGID_00000155833729572647407750000001884436509731487118_)" d="m159.09728,650.06028c-2.6607,0 -5.29991,-1.14874 -7.11813,-3.36779c-3.21842,-3.92873 -2.64136,-9.72188 1.28629,-12.93922c27.22922,-22.30434 48.36547,-51.44956 61.12308,-84.2871c1.83864,-4.7336 7.16649,-7.08052 11.90009,-5.24081c4.7336,1.83971 7.07945,7.16756 5.24081,11.90009c-13.90314,35.78301 -36.93713,67.54488 -66.61213,91.85226c-1.70753,1.40235 -3.77076,2.08257 -5.82002,2.08257z"/>
   </g>
   <g stroke="null" id="svg_35">
    <path stroke="null" id="svg_36" fill="url(#SVGID_00000003069102003663883740000007238625894888996270_)" d="m570.64003,574.88899c-0.49539,0 -0.99938,-0.03976 -1.50336,-0.12358c-5.01085,-0.82422 -8.40442,-5.55459 -7.58021,-10.56436c10.68472,-64.91534 9.45323,-130.82898 -3.66008,-195.90873l-0.49861,-2.47587c-8.9471,-41.15707 -33.12338,-76.57364 -68.2842,-99.93431c-35.85716,-23.82274 -78.84749,-32.25618 -121.04477,-23.74322c-42.21232,8.50866 -78.57991,32.94285 -102.40481,68.80323c-22.28607,33.5414 -31.10314,73.32513 -25.18211,112.86816l1.63984,8.14652c4.51116,22.4118 5.57716,45.15887 3.16469,67.60935c-0.5416,5.04846 -5.07747,8.70101 -10.12378,8.15942c-5.04953,-0.5416 -8.70209,-5.07532 -8.15942,-10.12378c1.88699,-17.57289 1.45071,-35.3521 -1.29596,-52.97871l-1.81177,-8.98471c-9.48654,-47.02222 -0.09134,-94.92131 26.45228,-134.87268c26.5447,-39.95137 67.06131,-67.17414 114.08783,-76.65316c47.01255,-9.48224 94.90627,-0.08812 134.85657,26.45336c39.95137,26.54362 67.17092,67.05593 76.64886,114.07493l0.8629,4.28657l-0.02901,0.03546c12.75332,65.87173 13.74087,132.53544 2.92935,198.22448c-0.74362,4.50471 -4.64333,7.70164 -9.06423,7.70164z"/>
   </g>
   <g stroke="null" id="svg_37">
    <path stroke="null" id="svg_38" fill="url(#SVGID_00000052820666419897394450000010481292094776646323_)" d="m522.06932,727.18412c-1.35184,0 -2.7241,-0.29981 -4.02114,-0.93168c-4.56596,-2.22442 -6.46263,-7.72743 -4.23714,-12.29232c15.24746,-31.29227 27.52258,-64.14485 36.48687,-97.64327c1.31316,-4.90446 6.35087,-7.81017 11.25963,-6.50561c4.90554,1.31316 7.81662,6.35409 6.50561,11.2607c-9.2684,34.63212 -21.95939,68.59476 -37.72266,100.94336c-1.59148,3.26678 -4.8647,5.16881 -8.27117,5.16881z"/>
   </g>
   <g stroke="null" id="svg_39">
    <path stroke="null" id="svg_40" fill="url(#SVGID_00000109031436370211291740000014440740307411022764_)" d="m581.28822,697.57252c-1.09179,0 -2.20185,-0.19665 -3.28289,-0.6093c-4.74327,-1.81392 -7.11706,-7.12995 -5.30314,-11.87322c39.34637,-102.85936 48.7996,-214.45735 27.37966,-322.89064l-0.47712,-2.3265c-5.86193,-29.06033 -17.6148,-55.85219 -34.92978,-79.62765c-2.98845,-4.10496 -2.08579,-9.8562 2.01917,-12.84573c4.10604,-2.9906 9.8562,-2.08472 12.84573,2.01917c18.12845,24.89197 30.66363,52.80678 37.29174,83.02015l0.03761,0.02472l0.77586,3.78258c22.70731,112.57802 13.10579,228.56251 -27.76651,335.41292c-1.40127,3.6633 -4.88942,5.91351 -8.59033,5.91351z"/>
   </g>
   <g stroke="null" id="svg_41">
    <path stroke="null" id="svg_42" fill="url(#SVGID_00000081617856624002660500000014457919432789183416_)" d="m534.90968,244.68464c-2.04926,0.00107 -4.10926,-0.68129 -5.81894,-2.08042c-47.52513,-38.91653 -109.28223,-54.28327 -169.44355,-42.15859c-15.4828,3.11848 -30.54865,8.0079 -44.77846,14.5307c-4.61647,2.11481 -10.07327,0.08919 -12.19023,-4.52728c-2.11588,-4.61539 -0.08919,-10.07327 4.52728,-12.19023c15.51718,-7.11276 31.93918,-12.44276 48.80928,-15.84064c65.58266,-13.22292 132.91477,3.53113 184.72539,45.95837c3.92873,3.21734 4.50579,9.0105 1.28737,12.93922c-1.81607,2.22012 -4.45743,3.36886 -7.11813,3.36886z"/>
   </g>
   <g stroke="null" id="svg_43">
    <path stroke="null" id="svg_44" fill="url(#SVGID_00000060026949236068225080000014955527108540923055_)" d="m130.88695,618.11896c-2.69079,0 -5.35687,-1.17561 -7.17401,-3.43549c-3.18081,-3.95882 -2.54894,-9.7466 1.4088,-12.92633c45.35015,-36.43314 67.37402,-93.55443 58.52041,-150.52204l-1.44963,-7.18905c-16.38008,-81.23309 13.43891,-164.1748 77.8191,-216.45932c3.9427,-3.20122 9.7337,-2.60053 12.93385,1.3411c3.2023,3.9427 2.6016,9.73263 -1.3411,12.93385c-56.92356,46.22702 -84.39241,118.57642 -72.84909,190.46589l1.62372,8.04766c13.33038,66.09095 -11.09307,133.42198 -63.73973,175.71705c-1.69679,1.36366 -3.731,2.02669 -5.75232,2.02669z"/>
   </g>
   <g stroke="null" id="svg_45">
    <path stroke="null" id="svg_46" fill="url(#SVGID_00000135656438741098351460000011519721504790639518_)" d="m106.85359,582.80555c-2.60805,0 -5.19998,-1.10469 -7.01927,-3.25066c-3.28289,-3.87285 -2.8047,-9.6746 1.0703,-12.95857c31.63721,-26.81012 46.94055,-68.03059 40.70574,-108.69657l-1.10146,-5.45036c-2.76816,-13.70434 -4.4671,-27.77189 -5.05168,-41.80935c-0.21062,-5.07317 3.731,-9.35759 8.80417,-9.56929c5.07317,-0.19665 9.35759,3.731 9.56929,8.80417c0.43091,10.35374 1.51303,20.72146 3.22379,30.92476l1.60867,7.98318c9.87447,48.97691 -7.70271,99.49587 -45.87025,131.84447c-1.72688,1.46145 -3.83954,2.17821 -5.9393,2.17821z"/>
   </g>
   <g stroke="null" id="svg_47">
    <path stroke="null" id="svg_48" fill="url(#SVGID_00000017479241211351959170000013132366125447687868_)" d="m656.13068,391.91841c-4.47892,0 -8.40442,-3.2786 -9.08357,-7.84241c-1.40665,-9.45645 -3.02714,-18.92043 -4.83031,-28.1942l-0.92093,-4.41337c-12.9994,-64.47905 -50.32661,-120.03357 -105.10957,-156.43018c-54.77974,-36.3966 -120.46019,-49.27995 -184.94354,-36.27947c-49.60018,10.0002 -94.23572,34.53325 -129.0849,70.94598c-34.06903,35.59925 -56.51521,79.96937 -64.91211,128.31442c-0.86827,5.00332 -5.62337,8.35714 -10.63314,7.48457c-5.00332,-0.86827 -8.35499,-5.62874 -7.48564,-10.63206c9.02447,-51.95677 33.14165,-99.63557 69.74458,-137.88263c37.45938,-39.14113 85.43369,-65.51174 138.73586,-76.25878c69.29754,-13.96976 139.88353,-0.12358 198.75533,38.99068c56.98696,37.86128 96.39888,95.0105 111.53458,161.47863l0.08704,0.0086l1.38408,6.62812c2.21582,10.98131 4.18985,22.26243 5.8673,33.53173c0.74684,5.02267 -2.71873,9.70039 -7.7414,10.44831c-0.45778,0.06877 -0.91341,0.10209 -1.36366,0.10209z"/>
   </g>
   <g stroke="null" id="svg_49">
    <path stroke="null" id="svg_50" fill="url(#SVGID_00000160888515731892740420000013810747027796521864_)" d="m641.6204,649.19201c-0.78553,0 -1.58181,-0.10209 -2.37486,-0.31378c-4.90661,-1.30886 -7.82307,-6.34657 -6.51528,-11.25318c17.46973,-65.49347 24.16124,-133.01793 19.89294,-200.70035c-0.32023,-5.0678 3.53005,-9.43604 8.59785,-9.75519c5.06995,-0.3342 9.43496,3.52898 9.75519,8.59678c4.39618,69.67043 -2.49414,139.17967 -20.4786,206.59667c-1.09609,4.11248 -4.81312,6.82906 -8.87725,6.82906z"/>
   </g>
   <g stroke="null" id="svg_51">
    <path stroke="null" id="svg_52" fill="url(#SVGID_00000078734969931751298230000007607325103927000216_)" d="m86.76829,543.19805c-2.23731,0 -4.47892,-0.81132 -6.24986,-2.45223c-3.72348,-3.45268 -3.94377,-9.26947 -0.49109,-12.99403c15.92338,-17.17314 23.07912,-40.79493 19.45988,-63.76015l-0.67162,-3.14212c-16.21889,-80.42822 -0.14615,-162.35551 45.25881,-230.69236c45.4028,-68.33471 114.70142,-114.89915 195.12964,-131.11482c33.77996,-6.81295 68.05424,-7.94665 101.86751,-3.37209c5.03234,0.68022 8.56132,5.31173 7.88002,10.34407c-0.68129,5.03126 -5.31926,8.56239 -10.34515,7.87787c-31.77906,-4.29839 -63.99871,-3.23131 -95.7681,3.17651c-75.61295,15.24531 -140.76255,59.02117 -183.44662,123.26489c-41.72016,62.78978 -57.09764,137.79129 -43.5373,211.74614l1.09287,5.11508c5.9898,29.72336 -2.77031,60.77384 -23.43481,83.06098c-1.8107,1.95362 -4.27367,2.94225 -6.74417,2.94225z"/>
   </g>
   <g stroke="null" id="svg_53">
    <path stroke="null" id="svg_54" fill="url(#SVGID_00000082335161465235849160000009132301192877662900_)" d="m700.46534,569.38383c-0.38041,0 -0.76189,-0.02257 -1.14767,-0.07092c-5.03879,-0.62756 -8.61505,-5.22147 -7.98855,-10.26025c8.69564,-69.83484 6.30359,-140.48531 -7.10309,-210.09233l-1.24546,-5.89631c-20.66343,-102.52516 -95.44034,-186.07616 -195.14469,-218.04865c-4.83676,-1.55172 -7.49961,-6.72805 -5.94897,-11.56374c1.55172,-4.83569 6.73235,-7.49531 11.56374,-5.9479c103.24299,33.10726 181.35761,118.22395 205.69616,223.33137l0.12358,-0.01934l1.81607,8.60108c14.82192,73.46376 17.6782,148.12462 8.49039,221.9086c-0.57813,4.65193 -4.54017,8.0584 -9.11151,8.0584z"/>
   </g>
  </g>
 </g>
</svg>